<?xml version="1.0" encoding="utf-8"?>
<!-- Generator: Adobe Illustrator 14.0.0, SVG Export Plug-In . SVG Version: 6.00 Build 43363)  -->
<!DOCTYPE svg PUBLIC "-//W3C//DTD SVG 1.1//EN" "http://www.w3.org/Graphics/SVG/1.1/DTD/svg11.dtd">
<svg version="1.1" xmlns="http://www.w3.org/2000/svg" xmlns:xlink="http://www.w3.org/1999/xlink" x="0px" y="0px" width="200px"
	 height="50px" viewBox="0 0 200 50" enable-background="new 0 0 200 50" xml:space="preserve">
<g id="Fondo">
</g>
<g id="Primer_plano">
	<g>
		<g>
			<g>
				<linearGradient id="SVGID_1_" gradientUnits="userSpaceOnUse" x1="27.7417" y1="33.1211" x2="27.7417" y2="13.0776">
					<stop  offset="0" style="stop-color:#8B0E13"/>
					<stop  offset="1" style="stop-color:#C90019"/>
				</linearGradient>
				<circle fill="url(#SVGID_1_)" cx="27.742" cy="23.099" r="10.022"/>
				<linearGradient id="SVGID_2_" gradientUnits="userSpaceOnUse" x1="27.7417" y1="23.0986" x2="27.7417" y2="23.0986">
					<stop  offset="0" style="stop-color:#8B0E13"/>
					<stop  offset="1" style="stop-color:#C90019"/>
				</linearGradient>
				<path fill="url(#SVGID_2_)" d="M27.742,23.099"/>
			</g>
			<g>
				<linearGradient id="SVGID_3_" gradientUnits="userSpaceOnUse" x1="27.7163" y1="48.6982" x2="27.7163" y2="0.4341">
					<stop  offset="0.6258" style="stop-color:#8B0E13"/>
					<stop  offset="0.9202" style="stop-color:#C90019"/>
				</linearGradient>
				<path fill="url(#SVGID_3_)" d="M2.493,23.102c0-2.903,0.273-5.744,0.794-8.496c1.568-8.07,8.669-14.166,17.194-14.166
					c0.555,0,1.104,0.026,1.646,0.076c-5.244,4.565-8.626,11.754-8.626,19.84c0,0.636,0.021,1.265,0.062,1.888
					c0.007,7.747,6.289,14.024,14.038,14.024c7.753,0,14.038-6.284,14.038-14.036c0.041-0.622,0.061-1.249,0.061-1.882
					c0-8.073-3.372-15.253-8.603-19.818c0.609-0.064,1.229-0.098,1.854-0.098c8.525,0,15.626,6.096,17.194,14.166
					c0.521,2.753,0.793,5.593,0.793,8.497v0.005l0.001,0.227c0,4.775-1.327,9.24-3.632,13.047
					c-4.197,7.352-12.244,12.323-21.482,12.323c-6.184,0-11.835-2.229-16.154-5.907c-5.605-4.627-9.178-11.627-9.178-19.463
					L2.493,23.102z"/>
				<linearGradient id="SVGID_4_" gradientUnits="userSpaceOnUse" x1="27.7163" y1="48.6982" x2="27.7163" y2="0.4341">
					<stop  offset="0.6258" style="stop-color:#8B0E13"/>
					<stop  offset="0.9202" style="stop-color:#C90019"/>
				</linearGradient>
				<path fill="url(#SVGID_4_)" d="M2.493,23.102c0-2.903,0.273-5.744,0.794-8.496c1.568-8.07,8.669-14.166,17.194-14.166
					c0.555,0,1.104,0.026,1.646,0.076c-5.244,4.565-8.626,11.754-8.626,19.84c0,0.636,0.021,1.265,0.062,1.888
					c0.007,7.747,6.289,14.024,14.038,14.024c7.753,0,14.038-6.284,14.038-14.036c0.041-0.622,0.061-1.249,0.061-1.882
					c0-8.073-3.372-15.253-8.603-19.818c0.609-0.064,1.229-0.098,1.854-0.098c8.525,0,15.626,6.096,17.194,14.166
					c0.521,2.753,0.793,5.593,0.793,8.497v0.005l0.001,0.227c0,4.775-1.327,9.24-3.632,13.047
					c-4.197,7.352-12.244,12.323-21.482,12.323c-6.184,0-11.835-2.229-16.154-5.907c-5.605-4.627-9.178-11.627-9.178-19.463
					L2.493,23.102z"/>
			</g>
			<linearGradient id="SVGID_5_" gradientUnits="userSpaceOnUse" x1="27.6001" y1="42.9414" x2="27.6001" y2="22.8101">
				<stop  offset="0" style="stop-color:#C90019"/>
				<stop  offset="1" style="stop-color:#8B0E13"/>
			</linearGradient>
			<path fill="url(#SVGID_5_)" d="M13.562,23.607c0-0.267,0.004-0.533,0.012-0.797c0.304,7.483,6.467,13.457,14.026,13.457
				c7.56,0,13.723-5.974,14.026-13.458c0.008,0.265,0.012,0.53,0.012,0.798c0,10.678-6.285,19.334-14.038,19.334
				C19.848,42.941,13.562,34.285,13.562,23.607z"/>
		</g>
		<g>
			<path d="M65.415,6.369c1.358,0,2.432,0.476,3.22,1.425c0.703,0.846,1.055,1.899,1.055,3.163c0,1.311-0.38,2.437-1.14,3.377
				c-0.845,1.044-1.966,1.566-3.362,1.566h-4.688V6.369H65.415z M62.508,14.334h2.137c0.912,0,1.643-0.356,2.194-1.068
				c0.494-0.646,0.741-1.42,0.741-2.323c0-0.854-0.228-1.548-0.684-2.08c-0.522-0.617-1.273-0.926-2.251-0.926h-2.137V14.334z"/>
			<path d="M77.467,6.369v1.567h-4.701v2.351h4.146v1.468h-4.146v2.579h4.701V15.9h-6.824V6.369H77.467z"/>
			<path d="M85.261,6.369v1.567h-4.374v2.465h3.804v1.468h-3.804V15.9h-2.123V6.369H85.261z"/>
			<path d="M93.268,6.369v1.567h-4.702v2.351h4.146v1.468h-4.146v2.579h4.702V15.9h-6.825V6.369H93.268z"/>
			<path d="M97.372,6.369l4.587,7.296V6.369h1.896V15.9h-2.579l-4.801-7.066V15.9h-1.909V6.369H97.372z"/>
			<path d="M110.637,8.051c-0.676-0.237-1.298-0.356-1.867-0.356c-0.513,0-0.917,0.098-1.211,0.292
				c-0.294,0.195-0.442,0.435-0.442,0.72c0,0.38,0.342,0.845,1.026,1.396c1.159,0.939,1.781,1.453,1.866,1.538
				c0.675,0.675,1.011,1.358,1.011,2.052c0,0.685-0.305,1.242-0.918,1.674c-0.612,0.433-1.432,0.648-2.458,0.648
				c-0.39,0-0.81-0.038-1.261-0.114c-0.451-0.075-0.899-0.189-1.347-0.342l-0.228-1.795c0.361,0.267,0.733,0.459,1.118,0.577
				s0.771,0.178,1.161,0.178c0.485,0,0.894-0.094,1.226-0.284c0.333-0.19,0.498-0.437,0.498-0.741c0-0.456-0.337-0.94-1.011-1.453
				c-1.207-0.921-1.833-1.405-1.881-1.453c-0.665-0.655-0.997-1.392-0.997-2.209c0-0.722,0.346-1.268,1.04-1.638
				c0.589-0.314,1.362-0.471,2.322-0.471c0.352,0,0.698,0.02,1.04,0.058c0.342,0.037,0.703,0.09,1.082,0.156L110.637,8.051z"/>
			<path d="M112.929,7.723c1.008-1.063,2.365-1.596,4.076-1.596c1.747,0,3.13,0.527,4.146,1.581
				c0.902,0.932,1.354,2.081,1.354,3.448c0,1.416-0.455,2.575-1.367,3.477c-1.018,1.007-2.451,1.51-4.304,1.51
				c-1.651,0-2.968-0.512-3.946-1.538c-0.884-0.931-1.325-2.066-1.325-3.405C111.562,9.841,112.017,8.683,112.929,7.723z
				 M114.653,8.734c-0.56,0.655-0.84,1.453-0.84,2.395c0,0.939,0.266,1.742,0.798,2.407c0.588,0.731,1.377,1.097,2.365,1.097
				c1.062,0,1.895-0.36,2.492-1.083c0.542-0.646,0.812-1.463,0.812-2.45c0-0.931-0.261-1.714-0.783-2.351
				c-0.59-0.713-1.396-1.069-2.423-1.069C116.069,7.68,115.262,8.031,114.653,8.734z"/>
			<path d="M128.131,6.369c1.027,0,1.815,0.247,2.365,0.741c0.476,0.428,0.714,0.974,0.714,1.639c0,0.712-0.253,1.344-0.756,1.895
				c-0.542,0.59-1.207,0.883-1.995,0.883l2.579,4.374h-2.236l-2.679-5.271c0.181,0.047,0.32,0.078,0.421,0.093
				c0.099,0.014,0.257,0.021,0.477,0.021c0.617,0,1.116-0.181,1.496-0.541c0.342-0.323,0.513-0.698,0.513-1.126
				c0-0.313-0.122-0.601-0.364-0.862c-0.241-0.261-0.528-0.392-0.861-0.392h-2.137V15.9h-2.01V6.369H128.131z"/>
			<path d="M138.946,6.369v1.567h-4.703v2.351h4.146v1.468h-4.146v2.579h4.703V15.9h-6.825V6.369H138.946z"/>
			<path d="M145.612,8.051c-0.673-0.237-1.296-0.356-1.867-0.356c-0.511,0-0.915,0.098-1.209,0.292
				c-0.295,0.195-0.442,0.435-0.442,0.72c0,0.38,0.343,0.845,1.026,1.396c1.159,0.939,1.78,1.453,1.866,1.538
				c0.674,0.675,1.012,1.358,1.012,2.052c0,0.685-0.307,1.242-0.919,1.674c-0.613,0.433-1.433,0.648-2.458,0.648
				c-0.391,0-0.811-0.038-1.261-0.114c-0.451-0.075-0.9-0.189-1.346-0.342l-0.229-1.795c0.36,0.267,0.733,0.459,1.118,0.577
				s0.771,0.178,1.161,0.178c0.484,0,0.893-0.094,1.226-0.284c0.332-0.19,0.498-0.437,0.498-0.741c0-0.456-0.337-0.94-1.011-1.453
				c-1.207-0.921-1.834-1.405-1.882-1.453c-0.665-0.655-0.997-1.392-0.997-2.209c0-0.722,0.347-1.268,1.04-1.638
				c0.59-0.314,1.363-0.471,2.322-0.471c0.351,0,0.698,0.02,1.04,0.058c0.342,0.037,0.703,0.09,1.083,0.156L145.612,8.051z"/>
			<path d="M154.831,6.369l4.589,7.296V6.369h1.894V15.9h-2.579l-4.801-7.066V15.9h-1.909V6.369H154.831z"/>
			<path d="M163.493,7.723c1.007-1.063,2.365-1.596,4.075-1.596c1.747,0,3.13,0.527,4.146,1.581
				c0.903,0.932,1.354,2.081,1.354,3.448c0,1.416-0.455,2.575-1.368,3.477c-1.016,1.007-2.449,1.51-4.302,1.51
				c-1.653,0-2.968-0.512-3.947-1.538c-0.883-0.931-1.324-2.066-1.324-3.405C162.126,9.841,162.581,8.683,163.493,7.723z
				 M165.218,8.734c-0.561,0.655-0.841,1.453-0.841,2.395c0,0.939,0.266,1.742,0.798,2.407c0.589,0.731,1.378,1.097,2.365,1.097
				c1.063,0,1.895-0.36,2.493-1.083c0.542-0.646,0.812-1.463,0.812-2.45c0-0.931-0.263-1.714-0.784-2.351
				c-0.589-0.713-1.396-1.069-2.422-1.069C166.632,7.68,165.825,8.031,165.218,8.734z"/>
			<path d="M178.695,6.369c1.026,0,1.814,0.247,2.365,0.741c0.476,0.428,0.714,0.974,0.714,1.639c0,0.712-0.253,1.344-0.756,1.895
				c-0.542,0.59-1.207,0.883-1.995,0.883l2.579,4.374h-2.237l-2.679-5.271c0.181,0.047,0.321,0.078,0.42,0.093
				c0.101,0.014,0.259,0.021,0.479,0.021c0.617,0,1.115-0.181,1.496-0.541c0.342-0.323,0.513-0.698,0.513-1.126
				c0-0.313-0.121-0.601-0.363-0.862c-0.242-0.261-0.53-0.392-0.862-0.392h-2.137V15.9h-2.009V6.369H178.695z"/>
			<path d="M189.624,6.369v1.567h-3.021V15.9h-2.123V7.937h-3.033V6.369H189.624z"/>
			<path d="M196.847,6.369v1.567h-4.701v2.351h4.146v1.468h-4.146v2.579h4.701V15.9h-6.824V6.369H196.847z"/>
		</g>
		<g>
			<path d="M66.741,22.166c-0.32-0.131-0.663-0.235-1.029-0.313s-0.745-0.117-1.14-0.117c-0.904,0-1.676,0.254-2.317,0.763
				c-0.756,0.606-1.133,1.468-1.133,2.583c0,1.099,0.302,1.974,0.906,2.626c0.604,0.651,1.427,0.978,2.47,0.978
				c0.682,0,1.43-0.136,2.243-0.406l-0.098,0.964c-0.156,0.081-0.399,0.147-0.727,0.201c-0.329,0.053-0.719,0.079-1.171,0.079
				c-0.805,0-1.516-0.103-2.132-0.308c-0.789-0.262-1.396-0.693-1.824-1.292c-0.509-0.705-0.764-1.648-0.764-2.83
				c0-1.337,0.435-2.383,1.306-3.138c0.829-0.722,1.93-1.083,3.302-1.083c0.624,0,1.261,0.078,1.91,0.234L66.741,22.166z"/>
			<path d="M68.786,23.534c0.69-0.123,1.043-0.185,1.06-0.185c0.55-0.083,1.026-0.123,1.429-0.123c0.624,0,1.138,0.103,1.54,0.308
				c0.468,0.238,0.703,0.592,0.703,1.061v4.755h-1.06v-3.4c-0.279,0.246-0.982,0.502-2.107,0.764
				c-0.838,0.197-1.256,0.575-1.256,1.133c0,0.28,0.143,0.525,0.431,0.734c0.288,0.209,0.641,0.314,1.06,0.314
				c0.402,0,0.805-0.107,1.208-0.32l-0.197,0.875c-0.419,0.106-0.813,0.159-1.183,0.159c-0.707,0-1.277-0.166-1.712-0.499
				c-0.436-0.332-0.653-0.729-0.653-1.189c0-0.641,0.386-1.158,1.158-1.552c0.18-0.091,0.899-0.349,2.157-0.776
				c0.764-0.254,1.146-0.538,1.146-0.851c0-0.221-0.111-0.414-0.333-0.579c-0.263-0.188-0.633-0.283-1.109-0.283
				c-0.386,0-0.799,0.05-1.238,0.148c-0.439,0.099-0.82,0.254-1.14,0.468L68.786,23.534z"/>
			<path d="M76.549,23.238v0.678c0.238-0.312,0.497-0.527,0.776-0.646c0.28-0.119,0.583-0.179,0.912-0.179
				c0.115,0,0.212,0.004,0.29,0.013c0.078,0.008,0.162,0.02,0.252,0.036l0.184,0.875c-0.279-0.065-0.533-0.099-0.764-0.099
				c-0.452,0-0.817,0.119-1.096,0.357c-0.312,0.271-0.469,0.67-0.469,1.195v3.881h-1.158v-6.111H76.549z"/>
			<path d="M81.392,21.106v8.243h-1.158v-8.243H81.392z"/>
			<path d="M88.65,24.076c0.558,0.624,0.838,1.377,0.838,2.255c0,0.863-0.255,1.598-0.764,2.205
				c-0.567,0.675-1.327,1.011-2.28,1.011c-1.035,0-1.849-0.336-2.439-1.011c-0.526-0.599-0.789-1.342-0.789-2.229
				c0-0.829,0.275-1.569,0.826-2.218c0.591-0.698,1.298-1.048,2.119-1.048C87.196,23.041,88.025,23.386,88.65,24.076z
				 M84.756,24.596c-0.337,0.47-0.505,1.005-0.505,1.605c0,0.684,0.187,1.287,0.561,1.811c0.374,0.521,0.856,0.783,1.448,0.783
				c0.666,0,1.208-0.262,1.626-0.789c0.378-0.475,0.567-1.038,0.567-1.688c0-0.632-0.206-1.209-0.617-1.73
				c-0.41-0.521-0.911-0.783-1.503-0.783c-0.025,0-0.066,0-0.123,0C85.618,23.805,85.134,24.068,84.756,24.596z"/>
			<path d="M99.542,22.166c-0.255-0.131-0.526-0.233-0.813-0.308c-0.362-0.099-0.703-0.147-1.023-0.147
				c-0.337,0-0.626,0.067-0.869,0.203c-0.242,0.135-0.405,0.351-0.486,0.646c-0.025,0.115-0.037,0.222-0.037,0.32
				c0,0.428,0.316,0.904,0.949,1.43c0.583,0.469,1.171,0.933,1.762,1.393c0.625,0.582,0.937,1.174,0.937,1.773
				c0,0.575-0.241,1.06-0.721,1.455c-0.481,0.394-1.119,0.591-1.917,0.591c-0.32,0-0.665-0.039-1.035-0.117
				c-0.369-0.077-0.739-0.194-1.109-0.351l-0.099-1.061c0.305,0.189,0.656,0.338,1.054,0.443c0.398,0.107,0.791,0.161,1.177,0.161
				c0.452,0,0.813-0.078,1.084-0.233c0.312-0.182,0.468-0.437,0.468-0.765c0-0.411-0.325-0.903-0.974-1.479
				c-0.607-0.517-1.211-1.038-1.811-1.564c-0.641-0.648-0.961-1.281-0.961-1.897c0-0.559,0.263-0.996,0.789-1.312
				c0.525-0.317,1.162-0.476,1.91-0.476c0.238,0,0.487,0.021,0.746,0.062c0.259,0.042,0.491,0.1,0.696,0.173L99.542,22.166z"/>
			<path d="M102.931,21.106v0.875h-1.158v-0.875H102.931z M102.931,23.238v6.111h-1.158v-6.111H102.931z"/>
			<path d="M106.232,21.106v8.243h-1.157v-8.243H106.232z"/>
			<path d="M108.576,23.237l1.935,5.228l1.933-5.227h1.059l-2.414,6.111h-1.158l-2.526-6.111L108.576,23.237z"/>
			<path d="M115.166,23.534c0.69-0.123,1.043-0.185,1.061-0.185c0.55-0.083,1.025-0.123,1.429-0.123c0.624,0,1.139,0.103,1.54,0.308
				c0.468,0.238,0.702,0.592,0.702,1.061v4.755h-1.06v-3.4c-0.278,0.246-0.981,0.502-2.106,0.764
				c-0.838,0.197-1.258,0.575-1.258,1.133c0,0.28,0.145,0.525,0.432,0.734c0.288,0.209,0.642,0.314,1.061,0.314
				c0.401,0,0.804-0.107,1.207-0.32l-0.197,0.875c-0.419,0.106-0.813,0.159-1.184,0.159c-0.706,0-1.276-0.166-1.711-0.499
				c-0.437-0.332-0.654-0.729-0.654-1.189c0-0.641,0.387-1.158,1.159-1.552c0.18-0.091,0.898-0.349,2.155-0.776
				c0.765-0.254,1.146-0.538,1.146-0.851c0-0.221-0.111-0.414-0.333-0.579c-0.264-0.188-0.633-0.283-1.108-0.283
				c-0.387,0-0.8,0.05-1.239,0.148c-0.438,0.099-0.818,0.254-1.14,0.468L115.166,23.534z"/>
			<path d="M130.877,22.265c-0.5-0.254-0.97-0.382-1.404-0.382c-0.428,0-0.771,0.104-1.029,0.314
				c-0.259,0.209-0.389,0.491-0.389,0.844c0,0.436,0.271,0.981,0.813,1.64c0.345,0.41,0.862,0.937,1.554,1.576
				c0.606,0.56,0.953,0.912,1.035,1.06c0.131-0.139,0.217-0.365,0.258-0.678c0.017-0.131,0.024-0.422,0.024-0.874h0.875
				c0,0.443-0.021,0.788-0.062,1.034c-0.065,0.387-0.205,0.752-0.419,1.098l1.552,1.453l-1.353-0.002l-0.877-0.871
				c-0.362,0.377-0.759,0.652-1.189,0.824c-0.432,0.173-0.885,0.259-1.362,0.259c-0.82,0-1.538-0.226-2.15-0.678
				c-0.61-0.452-0.917-0.997-0.917-1.64c0-0.41,0.151-0.816,0.456-1.219c0.337-0.452,0.833-0.862,1.49-1.232
				c-0.278-0.378-0.478-0.721-0.597-1.029c-0.119-0.308-0.179-0.598-0.179-0.868c0-0.567,0.255-1.011,0.764-1.331
				c0.443-0.279,1.003-0.419,1.676-0.419c0.246,0,0.48,0.021,0.702,0.062c0.223,0.041,0.433,0.103,0.629,0.186L130.877,22.265z
				 M128.362,25.469c-0.492,0.287-0.852,0.578-1.078,0.875c-0.226,0.295-0.338,0.591-0.338,0.887c0,0.411,0.203,0.758,0.609,1.041
				c0.407,0.283,0.885,0.426,1.436,0.426c0.329,0,0.657-0.061,0.986-0.18c0.329-0.118,0.628-0.293,0.899-0.523L128.362,25.469z"/>
			<path d="M142.816,21.008l3.389,8.342l-1.182,0.005l-1.445-3.491h-3.087l-1.555,3.487l-1.258-0.001l3.782-8.342H142.816z
				 M140.681,25.087h2.702l-1.343-3.207L140.681,25.087z"/>
			<path d="M148.239,23.337c0.689-0.173,1.314-0.259,1.873-0.259c0.993,0,1.753,0.268,2.279,0.801
				c0.525,0.534,0.788,1.323,0.788,2.365c0,1.053-0.279,1.882-0.838,2.49c-0.501,0.549-1.126,0.825-1.873,0.825
				c-0.419,0-0.826-0.101-1.22-0.302c-0.395-0.201-0.73-0.495-1.01-0.881v0.973h-1.061v-8.243h1.061V23.337z M148.886,28.088
				c0.432,0.455,0.839,0.684,1.227,0.684c0.517,0,0.979-0.229,1.386-0.684c0.407-0.457,0.61-1.037,0.61-1.744
				c0-0.879-0.251-1.528-0.752-1.947c-0.396-0.328-0.925-0.492-1.591-0.492c-0.295,0-0.572,0.026-0.83,0.08
				c-0.26,0.054-0.492,0.13-0.696,0.228v2.612C148.239,27.211,148.454,27.631,148.886,28.088z"/>
			<path d="M159.957,24.076c0.558,0.624,0.838,1.377,0.838,2.255c0,0.863-0.254,1.598-0.764,2.205
				c-0.566,0.675-1.327,1.011-2.28,1.011c-1.035,0-1.848-0.336-2.439-1.011c-0.525-0.599-0.788-1.342-0.788-2.229
				c0-0.829,0.274-1.569,0.825-2.218c0.592-0.698,1.298-1.048,2.12-1.048C158.502,23.041,159.334,23.386,159.957,24.076z
				 M156.063,24.596c-0.338,0.47-0.506,1.005-0.506,1.605c0,0.684,0.188,1.287,0.561,1.811c0.374,0.521,0.856,0.783,1.448,0.783
				c0.666,0,1.208-0.262,1.627-0.789c0.377-0.475,0.567-1.038,0.567-1.688c0-0.632-0.205-1.209-0.617-1.73
				c-0.41-0.521-0.911-0.783-1.502-0.783c-0.025,0-0.067,0-0.125,0C156.925,23.805,156.441,24.068,156.063,24.596z"/>
			<path d="M168.509,30.126c0,0.805-0.317,1.393-0.949,1.763c-0.484,0.279-1.146,0.418-1.984,0.418
				c-0.451,0-0.952-0.045-1.503-0.135c-0.271-0.041-0.6-0.107-0.986-0.197l-0.098-0.875c0.599,0.14,1.01,0.23,1.231,0.271
				c0.494,0.09,0.929,0.135,1.307,0.135c0.559,0,0.99-0.111,1.294-0.332c0.354-0.255,0.53-0.67,0.53-1.244v-1.651
				c-0.182,0.386-0.485,0.696-0.912,0.93c-0.428,0.234-0.892,0.352-1.392,0.352c-0.732,0-1.372-0.267-1.924-0.801
				c-0.606-0.592-0.911-1.364-0.911-2.317c0-1.149,0.398-2.016,1.195-2.6c0.674-0.492,1.561-0.738,2.661-0.738
				c0.37,0,0.774,0.032,1.214,0.098s0.849,0.145,1.227,0.234V30.126z M166.74,23.99c-0.218-0.025-0.433-0.037-0.646-0.037
				c-0.83,0-1.495,0.209-1.997,0.629c-0.542,0.451-0.813,1.104-0.813,1.959c0,0.665,0.214,1.211,0.641,1.639
				c0.387,0.386,0.843,0.579,1.369,0.579c0.533,0,1.026-0.223,1.479-0.666c0.451-0.443,0.677-0.961,0.677-1.552v-2.427
				C167.193,24.056,166.957,24.015,166.74,23.99z"/>
			<path d="M170.85,23.534c0.689-0.123,1.043-0.185,1.061-0.185c0.55-0.083,1.025-0.123,1.429-0.123c0.624,0,1.138,0.103,1.54,0.308
				c0.469,0.238,0.703,0.592,0.703,1.061v4.755h-1.061v-3.4c-0.278,0.246-0.982,0.502-2.106,0.764
				c-0.839,0.197-1.258,0.575-1.258,1.133c0,0.28,0.143,0.525,0.433,0.734c0.286,0.209,0.64,0.314,1.059,0.314
				c0.403,0,0.805-0.107,1.208-0.32l-0.197,0.875c-0.42,0.106-0.813,0.159-1.184,0.159c-0.706,0-1.277-0.166-1.712-0.499
				c-0.437-0.332-0.653-0.729-0.653-1.189c0-0.641,0.386-1.158,1.158-1.552c0.181-0.091,0.9-0.349,2.156-0.776
				c0.764-0.254,1.146-0.538,1.146-0.851c0-0.221-0.111-0.414-0.333-0.579c-0.263-0.188-0.633-0.283-1.108-0.283
				c-0.387,0-0.801,0.05-1.239,0.148s-0.819,0.254-1.139,0.468L170.85,23.534z"/>
			<path d="M183.258,21.106v8.243h-1.072v-1.158c-0.238,0.428-0.556,0.756-0.955,0.986c-0.398,0.23-0.828,0.345-1.286,0.345
				c-0.715,0-1.315-0.259-1.799-0.776c-0.534-0.574-0.802-1.375-0.802-2.402c0-0.944,0.345-1.725,1.034-2.341
				c0.691-0.617,1.553-0.925,2.588-0.925c0.214,0,0.417,0.013,0.609,0.037c0.194,0.024,0.397,0.065,0.61,0.123v-2.132H183.258z
				 M181.003,23.854c-0.714,0-1.323,0.214-1.824,0.641c-0.575,0.485-0.862,1.167-0.862,2.046c0,0.697,0.211,1.257,0.63,1.675
				c0.368,0.37,0.815,0.556,1.343,0.556c0.524,0,0.965-0.197,1.317-0.592c0.387-0.436,0.579-1.048,0.579-1.836v-2.229
				C181.841,23.94,181.447,23.854,181.003,23.854z"/>
			<path d="M190.503,24.076c0.558,0.624,0.837,1.377,0.837,2.255c0,0.863-0.254,1.598-0.763,2.205
				c-0.567,0.675-1.327,1.011-2.279,1.011c-1.036,0-1.85-0.336-2.44-1.011c-0.526-0.599-0.789-1.342-0.789-2.229
				c0-0.829,0.275-1.569,0.826-2.218c0.591-0.698,1.298-1.048,2.12-1.048C189.049,23.041,189.878,23.386,190.503,24.076z
				 M186.608,24.596c-0.336,0.47-0.505,1.005-0.505,1.605c0,0.684,0.188,1.287,0.562,1.811c0.374,0.521,0.856,0.783,1.448,0.783
				c0.665,0,1.207-0.262,1.624-0.789c0.38-0.475,0.568-1.038,0.568-1.688c0-0.632-0.206-1.209-0.615-1.73
				c-0.411-0.521-0.912-0.783-1.505-0.783c-0.024,0-0.064,0-0.122,0C187.473,23.805,186.987,24.068,186.608,24.596z"/>
			<path d="M195.235,23.83c-0.74,0-1.11,0.214-1.11,0.644c0,0.288,0.227,0.618,0.679,0.989c0.451,0.372,0.898,0.734,1.343,1.089
				c0.469,0.471,0.703,0.962,0.703,1.474c0,0.461-0.227,0.826-0.679,1.095s-1.022,0.402-1.713,0.402
				c-0.509,0-1.043-0.087-1.601-0.261l-0.1-1.07c0.229,0.168,0.495,0.297,0.795,0.385c0.299,0.089,0.589,0.133,0.868,0.133
				c0.378,0,0.694-0.068,0.949-0.204c0.254-0.136,0.382-0.323,0.382-0.563c0-0.23-0.238-0.569-0.714-1.014
				c-0.443-0.413-0.884-0.826-1.319-1.238c-0.468-0.503-0.702-0.94-0.702-1.312c0-0.421,0.201-0.753,0.604-0.996
				c0.402-0.243,0.915-0.365,1.54-0.365c0.435,0,0.899,0.07,1.393,0.212l0.185,0.886C196.146,23.924,195.645,23.83,195.235,23.83z"
				/>
		</g>
		<g>
			<path d="M64.961,34.928c1.109,0,1.984,0.418,2.625,1.256c0.567,0.74,0.85,1.652,0.85,2.736c0,1.166-0.336,2.16-1.01,2.982
				c-0.748,0.911-1.758,1.367-3.032,1.367h-3.585v-8.342H64.961z M61.967,42.395h1.947c1.093,0,1.955-0.373,2.588-1.121
				c0.558-0.658,0.837-1.463,0.837-2.416c0-0.797-0.234-1.494-0.702-2.095c-0.501-0.64-1.121-0.96-1.86-0.96h-2.81V42.395z"/>
			<path d="M78.861,34.928v0.875h-4.165v2.711h3.771v0.874h-3.771v3.007h4.165v0.875h-5.225v-8.342H78.861z"/>
			<path d="M89.261,34.928v0.875h-3.87v2.711h3.488v0.874h-3.488v3.882h-1.158v-8.342H89.261z"/>
			<path d="M99.957,34.928v0.875h-4.166v2.711h3.771v0.874h-3.771v3.007h4.166v0.875h-5.225v-8.342H99.957z"/>
			<path d="M106.882,34.928l4.842,7.085v-7.085h1.06v8.342h-1.454l-4.843-6.889v6.889h-1.059v-8.342H106.882z"/>
			<path d="M122.519,36.086c-0.256-0.132-0.526-0.234-0.813-0.309c-0.361-0.099-0.703-0.147-1.022-0.147
				c-0.337,0-0.627,0.067-0.869,0.203s-0.405,0.351-0.487,0.646c-0.024,0.115-0.037,0.222-0.037,0.321
				c0,0.426,0.317,0.902,0.949,1.43c0.583,0.467,1.171,0.932,1.763,1.391c0.624,0.584,0.937,1.176,0.937,1.775
				c0,0.574-0.241,1.06-0.722,1.454c-0.48,0.394-1.119,0.591-1.916,0.591c-0.32,0-0.666-0.039-1.035-0.117
				c-0.369-0.077-0.739-0.194-1.108-0.351l-0.099-1.06c0.304,0.189,0.655,0.337,1.054,0.443c0.397,0.107,0.79,0.16,1.176,0.16
				c0.452,0,0.814-0.078,1.086-0.234c0.312-0.18,0.468-0.436,0.468-0.764c0-0.41-0.325-0.904-0.974-1.479
				c-0.609-0.518-1.212-1.039-1.812-1.564c-0.642-0.649-0.961-1.282-0.961-1.898c0-0.559,0.263-0.996,0.788-1.312
				s1.162-0.474,1.911-0.474c0.237,0,0.485,0.021,0.744,0.062s0.491,0.098,0.696,0.172L122.519,36.086z"/>
			<path d="M131.957,34.928l3.389,8.342l-1.182,0.004l-1.445-3.491h-3.087l-1.556,3.487h-1.258l3.783-8.342H131.957z M129.82,39.006
				h2.702l-1.343-3.207L129.82,39.006z"/>
			<path d="M150.92,34.928c0.444,0,0.842,0.238,1.196,0.715c0.328,0.443,0.493,0.916,0.493,1.416c0,0.658-0.235,1.221-0.703,1.688
				c-0.518,0.517-1.212,0.776-2.082,0.776c-0.174,0-0.358-0.012-0.556-0.037c-0.197-0.024-0.386-0.057-0.566-0.099l-0.197-0.874
				c0.403,0.139,0.764,0.209,1.085,0.209c0.575,0,1.039-0.178,1.393-0.529c0.32-0.32,0.479-0.699,0.479-1.135
				c0-0.312-0.117-0.599-0.356-0.862c-0.238-0.263-0.521-0.394-0.851-0.394h-2.045v7.467h-1.061v-8.342H150.92z"/>
			<path d="M162.774,34.928v0.875h-4.165v2.711h3.771v0.874h-3.771v3.007h4.165v0.875h-5.224v-8.342H162.774z"/>
			<path d="M169.699,34.928l4.843,7.085v-7.085h1.06v8.342h-1.454l-4.843-6.889v6.889h-1.06v-8.342H169.699z"/>
			<path d="M185.053,34.928l3.389,8.342l-1.182,0.004l-1.445-3.491h-3.087l-1.555,3.487h-1.258l3.781-8.342H185.053z
				 M182.917,39.006h2.701l-1.343-3.207L182.917,39.006z"/>
			<path d="M193.998,34.928v7.467h3.869v0.875h-5.027v-8.342H193.998z"/>
		</g>
	</g>
</g>
<g id="GuÌas" display="none">
</g>
</svg>
